# xmcd CD database file
#
# Track frame offsets:
#	150
#	17149
#	37877
#	62079
#	81646
#	87519
#	109103
#	133217
#	154759
#	163157
#	196110
#
# Disc length: 2872 seconds
#
# Revision: 0
# Processed by: cddbd v1.5PL3 Copyright (c) Steve Scherf et al.
# Submitted via: CDex 1.51
#
DISCID=920b360b
DTITLE=Carmen McCrae - Black Magic
DYEAR=2001
DGENRE=Blues
TTITLE0=Black Magic
TTITLE1=Last Winter
TTITLE2=New York State of Mind
TTITLE3=Underneath the Apple Tree
TTITLE4=Thou Swell
TTITLE5=Send In the Clowns
TTITLE6=I Just Can't Want to See You
TTITLE7=How Long Has This Been Going On?
TTITLE8=If I Were a Bell
TTITLE9=My Foolish Heart
TTITLE10=Secret Love
EXTD=YEAR: 2001
EXTT0=
EXTT1=
EXTT2=
EXTT3=
EXTT4=
EXTT5=
EXTT6=
EXTT7=
EXTT8=
EXTT9=
EXTT10=
PLAYORDER=
